<svg id="svg" width="800" height="800" xmlns="http://www.w3.org/2000/svg">
	<path d="M 420 400 A 20 20 0 0 0 400 380" style="stroke: rgb(51, 85, 51); stroke-width: 5; fill: none;"></path>
	<path d="M 400 420 A 20 20 0 0 0 420 400" style="stroke: rgb(102, 136, 68); stroke-width: 10; fill: none;"></path>
	<path d="M 380 400 A 20 20 0 0 0 400 420" style="stroke: rgb(51, 85, 51); stroke-width: 10; fill: none;"></path>
	<path d="M 400 380 A 20 20 0 0 0 380 400" style="stroke: rgb(102, 136, 68); stroke-width: 10; fill: none;"></path>
	<path d="M 440.79608960093867 416.48269011030015 A 44 44 0 0 0 416.48269011030015 359.20391039906133" style="stroke: rgb(136, 68, 102); stroke-width: 20; fill: none;"></path>
	<path d="M 383.51730988969985 440.79608960093867 A 44 44 0 0 0 440.79608960093867 416.48269011030015" style="stroke: rgb(102, 136, 68); stroke-width: 15; fill: none;"></path>
	<path d="M 359.20391039906133 383.51730988969985 A 44 44 0 0 0 383.51730988969985 440.79608960093867" style="stroke: rgb(51, 85, 51); stroke-width: 20; fill: none;"></path>
	<path d="M 416.48269011030015 359.20391039906133 A 44 44 0 0 0 359.20391039906133 383.51730988969985" style="stroke: rgb(102, 136, 68); stroke-width: 20; fill: none;"></path>
	<path d="M 448.0832611206852 448.0832611206852 A 68 68 0 0 0 448.0832611206852 351.9167388793148" style="stroke: rgb(68, 102, 136); stroke-width: 10; fill: none;"></path>
	<path d="M 351.9167388793148 351.9167388793148 A 68 68 0 0 0 351.9167388793148 448.0832611206852" style="stroke: rgb(68, 102, 136); stroke-width: 5; fill: none;"></path>
	<path d="M 448.0832611206852 351.9167388793148 A 68 68 0 0 0 351.9167388793148 351.9167388793148" style="stroke: rgb(136, 68, 102); stroke-width: 10; fill: none;"></path>
	<path d="M 435.9472638210132 484.6864465176245 A 92 92 0 0 0 484.6864465176245 364.05273617898683" style="stroke: rgb(136, 68, 102); stroke-width: 15; fill: none;"></path>
	<path d="M 315.3135534823755 435.9472638210132 A 92 92 0 0 0 435.9472638210132 484.6864465176245" style="stroke: rgb(136, 68, 102); stroke-width: 15; fill: none;"></path>
	<path d="M 364.05273617898683 315.3135534823755 A 92 92 0 0 0 315.3135534823755 435.9472638210132" style="stroke: rgb(51, 85, 51); stroke-width: 10; fill: none;"></path>
	<path d="M 484.68644651762446 364.0527361789867 A 92 92 0 0 0 364.05273617898683 315.3135534823755" style="stroke: rgb(136, 68, 102); stroke-width: 15; fill: none;"></path>
	<path d="M 400 516 A 116 116 0 0 0 516 400" style="stroke: rgb(102, 136, 68); stroke-width: 10; fill: none;"></path>
	<path d="M 284 400 A 116 116 0 0 0 400 516" style="stroke: rgb(51, 85, 51); stroke-width: 5; fill: none;"></path>
	<path d="M 400 284 A 116 116 0 0 0 284 400" style="stroke: rgb(136, 68, 102); stroke-width: 10; fill: none;"></path>
	<path d="M 516 400 A 116 116 0 0 0 400 284" style="stroke: rgb(68, 102, 136); stroke-width: 15; fill: none;"></path>
	<path d="M 347.5550769217723 529.8057396393502 A 140 140 0 0 0 529.8057396393502 452.4449230782277" style="stroke: rgb(51, 85, 51); stroke-width: 20; fill: none;"></path>
	<path d="M 270.19426036064976 347.5550769217723 A 140 140 0 0 0 347.5550769217723 529.8057396393502" style="stroke: rgb(68, 102, 136); stroke-width: 5; fill: none;"></path>
	<path d="M 452.4449230782277 270.19426036064976 A 140 140 0 0 0 270.19426036064976 347.5550769217723" style="stroke: rgb(102, 136, 68); stroke-width: 20; fill: none;"></path>
	<path d="M 529.8057396393502 452.44492307822765 A 140 140 0 0 0 452.4449230782277 270.19426036064976" style="stroke: rgb(102, 136, 68); stroke-width: 20; fill: none;"></path>
	<path d="M 284.03448788540624 515.9655121145938 A 164 164 0 0 0 515.9655121145938 515.9655121145938" style="stroke: rgb(68, 102, 136); stroke-width: 5; fill: none;"></path>
	<path d="M 515.9655121145938 284.0344878854062 A 164 164 0 0 0 284.0344878854062 284.03448788540624" style="stroke: rgb(136, 68, 102); stroke-width: 20; fill: none;"></path>
	<path d="M 515.9655121145939 515.9655121145936 A 164 164 0 0 0 515.9655121145938 284.0344878854062" style="stroke: rgb(68, 102, 136); stroke-width: 10; fill: none;"></path>
	<path d="M 226.94508755094125 473.45745215598356 A 188 188 0 0 0 473.4574521559835 573.0549124490587" style="stroke: rgb(136, 68, 102); stroke-width: 15; fill: none;"></path>
	<path d="M 326.54254784401655 226.94508755094122 A 188 188 0 0 0 226.94508755094125 473.45745215598356" style="stroke: rgb(68, 102, 136); stroke-width: 20; fill: none;"></path>
	<path d="M 573.0549124490587 326.5425478440163 A 188 188 0 0 0 326.54254784401655 226.94508755094122" style="stroke: rgb(136, 68, 102); stroke-width: 10; fill: none;"></path>
	<path d="M 473.45745215598333 573.0549124490589 A 188 188 0 0 0 573.0549124490587 326.5425478440163" style="stroke: rgb(102, 136, 68); stroke-width: 5; fill: none;"></path>
	<path d="M 188 400 A 212 212 0 0 0 400 612" style="stroke: rgb(102, 136, 68); stroke-width: 20; fill: none;"></path>
	<path d="M 399.99999999999994 188 A 212 212 0 0 0 188 400" style="stroke: rgb(136, 68, 102); stroke-width: 20; fill: none;"></path>
	<path d="M 612 399.99999999999994 A 212 212 0 0 0 399.99999999999994 188" style="stroke: rgb(68, 102, 136); stroke-width: 15; fill: none;"></path>
	<path d="M 400.00000000000006 612 A 212 212 0 0 0 612 399.99999999999994" style="stroke: rgb(102, 136, 68); stroke-width: 15; fill: none;"></path>
	<path d="M 181.18461032223817 311.59284395384475 A 236 236 0 0 0 311.59284395384475 618.8153896777618" style="stroke: rgb(68, 102, 136); stroke-width: 15; fill: none;"></path>
	<path d="M 488.40715604615525 181.18461032223817 A 236 236 0 0 0 181.18461032223817 311.59284395384475" style="stroke: rgb(68, 102, 136); stroke-width: 5; fill: none;"></path>
	<path d="M 618.8153896777618 488.4071560461552 A 236 236 0 0 0 488.40715604615525 181.18461032223817" style="stroke: rgb(102, 136, 68); stroke-width: 10; fill: none;"></path>
	<path d="M 311.592843953845 618.8153896777619 A 236 236 0 0 0 618.8153896777618 488.4071560461552" style="stroke: rgb(51, 85, 51); stroke-width: 10; fill: none;"></path>
	<path d="M 216.1522368914976 216.15223689149767 A 260 260 0 0 0 216.15223689149767 583.8477631085024" style="stroke: rgb(68, 102, 136); stroke-width: 5; fill: none;"></path>
	<path d="M 583.8477631085022 216.1522368914976 A 260 260 0 0 0 216.1522368914976 216.15223689149767" style="stroke: rgb(51, 85, 51); stroke-width: 5; fill: none;"></path>
	<path d="M 583.8477631085026 583.8477631085021 A 260 260 0 0 0 583.8477631085022 216.1522368914976" style="stroke: rgb(51, 85, 51); stroke-width: 10; fill: none;"></path>
	<path d="M 216.15223689149755 583.8477631085022 A 260 260 0 0 0 583.8477631085026 583.8477631085021" style="stroke: rgb(136, 68, 102); stroke-width: 5; fill: none;"></path>
	<path d="M 289.0323595090462 138.57662161950697 A 284 284 0 0 0 138.57662161950702 510.96764049095384" style="stroke: rgb(102, 136, 68); stroke-width: 10; fill: none;"></path>
	<path d="M 510.96764049095356 661.4233783804932 A 284 284 0 0 0 661.423378380493 289.032359509046" style="stroke: rgb(102, 136, 68); stroke-width: 5; fill: none;"></path>
	<path d="M 138.57662161950697 510.96764049095384 A 284 284 0 0 0 510.96764049095356 661.4233783804932" style="stroke: rgb(68, 102, 136); stroke-width: 20; fill: none;"></path>
	<path d="M 399.99999999999994 92 A 308 308 0 0 0 92 400.00000000000006" style="stroke: rgb(68, 102, 136); stroke-width: 20; fill: none;"></path>
	<path d="M 708 399.99999999999994 A 308 308 0 0 0 399.99999999999994 92" style="stroke: rgb(102, 136, 68); stroke-width: 15; fill: none;"></path>
	<path d="M 92 400.0000000000001 A 308 308 0 0 0 400.0000000000001 708" style="stroke: rgb(102, 136, 68); stroke-width: 5; fill: none;"></path>
	<path d="M 524.3693890140828 92.17496028382658 A 332 332 0 0 0 92.17496028382658 275.6306109859172" style="stroke: rgb(102, 136, 68); stroke-width: 20; fill: none;"></path>
	<path d="M 707.8250397161735 524.3693890140828 A 332 332 0 0 0 524.3693890140828 92.17496028382658" style="stroke: rgb(102, 136, 68); stroke-width: 5; fill: none;"></path>
	<path d="M 275.63061098591754 707.8250397161736 A 332 332 0 0 0 707.8250397161735 524.3693890140828" style="stroke: rgb(68, 102, 136); stroke-width: 20; fill: none;"></path>
	<path d="M 92.17496028382641 275.63061098591754 A 332 332 0 0 0 275.63061098591754 707.8250397161736" style="stroke: rgb(68, 102, 136); stroke-width: 20; fill: none;"></path>
	<path d="M 651.7300141024109 148.26998589758904 A 356 356 0 0 0 148.26998589758904 148.2699858975891" style="stroke: rgb(136, 68, 102); stroke-width: 10; fill: none;"></path>
	<path d="M 651.7300141024112 651.7300141024107 A 356 356 0 0 0 651.7300141024109 148.26998589758904" style="stroke: rgb(68, 102, 136); stroke-width: 10; fill: none;"></path>
	<path d="M 148.26998589758895 651.7300141024108 A 356 356 0 0 0 651.7300141024112 651.7300141024107" style="stroke: rgb(136, 68, 102); stroke-width: 15; fill: none;"></path>
	<path d="M 148.2699858975892 148.26998589758895 A 356 356 0 0 0 148.26998589758895 651.7300141024108" style="stroke: rgb(102, 136, 68); stroke-width: 10; fill: none;"></path>
	<path d="M 548.4778288259238 749.7918443119274 A 380 380 0 0 0 749.7918443119272 251.5221711740756" style="stroke: rgb(68, 102, 136); stroke-width: 15; fill: none;"></path>
	<path d="M 50.20815568807268 548.4778288259241 A 380 380 0 0 0 548.4778288259238 749.7918443119274" style="stroke: rgb(136, 68, 102); stroke-width: 5; fill: none;"></path>
</svg>
